<svg width="27" height="26" viewBox="0 0 27 26" fill="none" xmlns="http://www.w3.org/2000/svg">
<path d="M0.618408 20.3083V9.10514C0.618408 5.91804 0.618408 4.32449 1.23866 3.10718C1.78425 2.03641 2.65481 1.16584 3.72559 0.62025C4.9429 0 6.53645 0 9.72354 0H17.1215C20.3086 0 21.9021 0 23.1194 0.62025C24.1902 1.16584 25.0608 2.03641 25.6064 3.10718C26.2266 4.32449 26.2266 5.91804 26.2266 9.10514V10.8123C26.2266 13.9994 26.2266 15.593 25.6064 16.8103C25.0608 17.8811 24.1902 18.7516 23.1194 19.2972C21.9021 19.9175 20.3086 19.9175 17.1215 19.9175H11.0881C10.375 19.9175 10.0185 19.9175 9.68392 19.9997C9.38733 20.0726 9.10442 20.1928 8.84603 20.3556C8.55456 20.5393 8.30699 20.7959 7.81187 21.309L6.49003 22.6791C4.65468 24.5813 3.73701 25.5325 2.9465 25.6047C2.26086 25.6673 1.58712 25.3952 1.13717 24.8741C0.618408 24.2733 0.618408 22.9516 0.618408 20.3083Z" fill="#5E5A57"/>
<rect x="6.30933" y="5.69067" width="14.2268" height="2.84535" rx="1.42268" fill="white" fill-opacity="0.6"/>
<rect x="6.30933" y="11.3813" width="7.11339" height="2.84535" rx="1.42268" fill="white" fill-opacity="0.6"/>
</svg>
