<svg width="18" height="18" viewBox="0 0 18 18" fill="none" xmlns="http://www.w3.org/2000/svg">
<path opacity="0.4" d="M16.3125 5.04746C16.3125 4.89746 16.2525 4.75499 16.1475 4.64999L13.3575 1.85996C13.14 1.64246 12.78 1.64246 12.5625 1.85996C12.345 2.07746 12.345 2.43746 12.5625 2.65496L14.4 4.49247H2.25C1.9425 4.49247 1.6875 4.74747 1.6875 5.05497C1.6875 5.36247 1.9425 5.61747 2.25 5.61747H14.3925L12.5625 7.44747C12.345 7.66497 12.345 8.02497 12.5625 8.24247C12.675 8.35497 12.8175 8.40749 12.96 8.40749C13.1025 8.40749 13.245 8.35497 13.3575 8.24247L16.14 5.46C16.1925 5.4075 16.2375 5.33999 16.2675 5.26499C16.2675 5.25749 16.2675 5.24997 16.275 5.24247C16.2975 5.17497 16.3125 5.11496 16.3125 5.04746Z" fill="white"/>
<path d="M15.75 12.39H3.6075L5.4375 10.56C5.655 10.3425 5.655 9.98249 5.4375 9.76499C5.22 9.54749 4.86 9.54749 4.6425 9.76499L1.85999 12.5475C1.80749 12.6 1.7625 12.6675 1.7325 12.7425C1.7325 12.75 1.73249 12.7575 1.72499 12.765C1.70249 12.825 1.6875 12.8925 1.6875 12.96C1.6875 13.11 1.74748 13.2525 1.85248 13.3575L4.6425 16.1475C4.755 16.26 4.89748 16.3125 5.03998 16.3125C5.18248 16.3125 5.325 16.26 5.4375 16.1475C5.655 15.93 5.655 15.57 5.4375 15.3525L3.59999 13.515H15.75C16.0575 13.515 16.3125 13.26 16.3125 12.9525C16.3125 12.645 16.0575 12.39 15.75 12.39Z" fill="white"/>
</svg>
