<svg width="20" height="20" viewBox="0 0 20 20" fill="none" xmlns="http://www.w3.org/2000/svg">
<path d="M16.3384 4.84006L9.05798 12.1205L11.9845 17.5555L16.3384 4.84006ZM7.87952 10.942L15.1602 3.66123L2.44433 8.01532L7.87952 10.942ZM1.65417 9.48277C0.843716 9.04637 0.540485 8.0356 0.976882 7.22515C1.17594 6.85547 1.50719 6.57454 1.90442 6.43853L16.4123 1.47086C17.2831 1.17267 18.2308 1.6369 18.529 2.50774C18.6488 2.8577 18.6488 3.23759 18.529 3.58756L13.5613 18.0954C13.2631 18.9662 12.3154 19.4305 11.4446 19.1323C11.0474 18.9963 10.7161 18.7153 10.5171 18.3457L7.41505 12.5848L1.65417 9.48277Z" fill="white"/>
</svg>
